<mxfile host="app.diagrams.net" modified="2022-10-12T11:03:27.902Z" agent="5.0 (Windows)" etag="q520UOU27V87dA-yqo7h" version="20.4.0" type="github" pages="2">
  <diagram id="xLggRz3xDiTvZfhR7DCt" name="Modules">
    <mxGraphModel dx="2157" dy="1422" grid="1" gridSize="10" guides="1" tooltips="1" connect="1" arrows="1" fold="1" page="1" pageScale="1" pageWidth="850" pageHeight="1100" math="0" shadow="0">
      <root>
        <mxCell id="0" />
        <mxCell id="1" parent="0" />
        <mxCell id="th4ECtOqTUSO3FZzo3ZR-9" value="" style="group" vertex="1" connectable="0" parent="1">
          <mxGeometry x="600" y="330" width="310" height="130" as="geometry" />
        </mxCell>
        <mxCell id="th4ECtOqTUSO3FZzo3ZR-5" value="" style="rounded=0;whiteSpace=wrap;html=1;" vertex="1" parent="th4ECtOqTUSO3FZzo3ZR-9">
          <mxGeometry width="305.44117647058823" height="130.00000000000003" as="geometry" />
        </mxCell>
        <mxCell id="th4ECtOqTUSO3FZzo3ZR-6" value="&lt;h1&gt;EMAIL_BOT&lt;br&gt;&lt;/h1&gt;&lt;div&gt;Able to retreive Yardi security code from email&lt;/div&gt;&lt;div&gt;Spam resident unwilling to pay rent&lt;/div&gt;&lt;div&gt;Able to send reports&lt;br&gt;&lt;/div&gt;&lt;div&gt;&lt;br&gt;&lt;/div&gt;" style="text;html=1;strokeColor=none;fillColor=none;spacing=5;spacingTop=-20;whiteSpace=wrap;overflow=hidden;rounded=0;" vertex="1" parent="th4ECtOqTUSO3FZzo3ZR-9">
          <mxGeometry width="310" height="130.00000000000003" as="geometry" />
        </mxCell>
        <mxCell id="th4ECtOqTUSO3FZzo3ZR-10" value="" style="group" vertex="1" connectable="0" parent="1">
          <mxGeometry x="-10" y="310" width="210" height="110" as="geometry" />
        </mxCell>
        <mxCell id="th4ECtOqTUSO3FZzo3ZR-11" value="" style="rounded=0;whiteSpace=wrap;html=1;" vertex="1" parent="th4ECtOqTUSO3FZzo3ZR-10">
          <mxGeometry width="206.91176470588238" height="110.00000000000001" as="geometry" />
        </mxCell>
        <mxCell id="th4ECtOqTUSO3FZzo3ZR-12" value="&lt;h1&gt;Formatter&lt;br&gt;&lt;/h1&gt;Able to format the data in csv files&lt;br&gt;&lt;div&gt;&lt;br&gt;&lt;/div&gt;" style="text;html=1;strokeColor=none;fillColor=none;spacing=5;spacingTop=-20;whiteSpace=wrap;overflow=hidden;rounded=0;" vertex="1" parent="th4ECtOqTUSO3FZzo3ZR-10">
          <mxGeometry width="210" height="110.00000000000001" as="geometry" />
        </mxCell>
        <mxCell id="JdXKYWSp74OsARodr6tb-2" style="edgeStyle=orthogonalEdgeStyle;rounded=0;orthogonalLoop=1;jettySize=auto;html=1;fontSize=24;" edge="1" parent="1" source="JdXKYWSp74OsARodr6tb-1" target="th4ECtOqTUSO3FZzo3ZR-12">
          <mxGeometry relative="1" as="geometry" />
        </mxCell>
        <mxCell id="JdXKYWSp74OsARodr6tb-7" style="edgeStyle=orthogonalEdgeStyle;rounded=0;orthogonalLoop=1;jettySize=auto;html=1;fontSize=24;" edge="1" parent="1" source="JdXKYWSp74OsARodr6tb-1" target="JdXKYWSp74OsARodr6tb-6">
          <mxGeometry relative="1" as="geometry" />
        </mxCell>
        <mxCell id="JdXKYWSp74OsARodr6tb-8" style="edgeStyle=orthogonalEdgeStyle;rounded=0;orthogonalLoop=1;jettySize=auto;html=1;entryX=0.5;entryY=0;entryDx=0;entryDy=0;fontSize=24;" edge="1" parent="1" source="JdXKYWSp74OsARodr6tb-1" target="th4ECtOqTUSO3FZzo3ZR-6">
          <mxGeometry relative="1" as="geometry" />
        </mxCell>
        <mxCell id="JdXKYWSp74OsARodr6tb-1" value="&lt;h1&gt;&lt;font style=&quot;font-size: 24px;&quot;&gt;ENVIE BOT&lt;/font&gt;&lt;/h1&gt;" style="rounded=0;whiteSpace=wrap;html=1;" vertex="1" parent="1">
          <mxGeometry x="280" y="110" width="200" height="130" as="geometry" />
        </mxCell>
        <mxCell id="JdXKYWSp74OsARodr6tb-4" value="" style="group" vertex="1" connectable="0" parent="1">
          <mxGeometry x="235" y="430" width="290" height="100" as="geometry" />
        </mxCell>
        <mxCell id="JdXKYWSp74OsARodr6tb-5" value="" style="rounded=0;whiteSpace=wrap;html=1;" vertex="1" parent="JdXKYWSp74OsARodr6tb-4">
          <mxGeometry width="290" height="99.99999999999999" as="geometry" />
        </mxCell>
        <mxCell id="JdXKYWSp74OsARodr6tb-6" value="&lt;h1&gt;WEBSITE_SCRAPPER&lt;br&gt;&lt;/h1&gt;&lt;p&gt;Able to retreive information from yardi&lt;br&gt;&lt;/p&gt;" style="text;html=1;strokeColor=none;fillColor=none;spacing=5;spacingTop=-20;whiteSpace=wrap;overflow=hidden;rounded=0;" vertex="1" parent="JdXKYWSp74OsARodr6tb-4">
          <mxGeometry width="290" height="99.99999999999999" as="geometry" />
        </mxCell>
      </root>
    </mxGraphModel>
  </diagram>
  <diagram id="c8Nor9SsRpzTECpaN6IT" name="WEB SCRAPPER OBJ">
    <mxGraphModel dx="784" dy="313" grid="1" gridSize="10" guides="1" tooltips="1" connect="1" arrows="1" fold="1" page="1" pageScale="1" pageWidth="850" pageHeight="1100" math="0" shadow="0">
      <root>
        <mxCell id="0" />
        <mxCell id="1" parent="0" />
        <mxCell id="Ae-3tbpD8CXmH7pGEP9--15" style="edgeStyle=orthogonalEdgeStyle;rounded=0;orthogonalLoop=1;jettySize=auto;html=1;fontSize=14;" edge="1" parent="1" source="Ae-3tbpD8CXmH7pGEP9--1" target="Ae-3tbpD8CXmH7pGEP9--5">
          <mxGeometry relative="1" as="geometry" />
        </mxCell>
        <mxCell id="Ae-3tbpD8CXmH7pGEP9--1" value="BOT" style="rounded=0;whiteSpace=wrap;html=1;fontSize=24;" vertex="1" parent="1">
          <mxGeometry x="230" y="140" width="120" height="60" as="geometry" />
        </mxCell>
        <mxCell id="Ae-3tbpD8CXmH7pGEP9--5" value="__init__" style="swimlane;fontStyle=0;childLayout=stackLayout;horizontal=1;startSize=30;horizontalStack=0;resizeParent=1;resizeParentMax=0;resizeLast=0;collapsible=1;marginBottom=0;fontSize=14;" vertex="1" parent="1">
          <mxGeometry x="180" y="310" width="220" height="150" as="geometry" />
        </mxCell>
        <mxCell id="Ae-3tbpD8CXmH7pGEP9--6" value="defines the meta stuff" style="text;strokeColor=none;fillColor=none;align=left;verticalAlign=middle;spacingLeft=4;spacingRight=4;overflow=hidden;points=[[0,0.5],[1,0.5]];portConstraint=eastwest;rotatable=0;fontSize=14;" vertex="1" parent="Ae-3tbpD8CXmH7pGEP9--5">
          <mxGeometry y="30" width="220" height="30" as="geometry" />
        </mxCell>
        <mxCell id="Ae-3tbpD8CXmH7pGEP9--8" value="logs in to Yardi " style="text;strokeColor=none;fillColor=none;align=left;verticalAlign=middle;spacingLeft=4;spacingRight=4;overflow=hidden;points=[[0,0.5],[1,0.5]];portConstraint=eastwest;rotatable=0;fontSize=14;" vertex="1" parent="Ae-3tbpD8CXmH7pGEP9--5">
          <mxGeometry y="60" width="220" height="30" as="geometry" />
        </mxCell>
        <mxCell id="Ae-3tbpD8CXmH7pGEP9--7" value="opens the browser" style="text;strokeColor=none;fillColor=none;align=left;verticalAlign=middle;spacingLeft=4;spacingRight=4;overflow=hidden;points=[[0,0.5],[1,0.5]];portConstraint=eastwest;rotatable=0;fontSize=14;" vertex="1" parent="Ae-3tbpD8CXmH7pGEP9--5">
          <mxGeometry y="90" width="220" height="30" as="geometry" />
        </mxCell>
        <mxCell id="Ae-3tbpD8CXmH7pGEP9--14" value="goes to Voyager page" style="text;html=1;strokeColor=none;fillColor=none;align=center;verticalAlign=middle;whiteSpace=wrap;rounded=0;fontSize=14;" vertex="1" parent="Ae-3tbpD8CXmH7pGEP9--5">
          <mxGeometry y="120" width="220" height="30" as="geometry" />
        </mxCell>
        <mxCell id="Ae-3tbpD8CXmH7pGEP9--16" value="GET_EMAILS" style="swimlane;fontStyle=0;childLayout=stackLayout;horizontal=1;startSize=30;horizontalStack=0;resizeParent=1;resizeParentMax=0;resizeLast=0;collapsible=1;marginBottom=0;fontSize=14;" vertex="1" parent="1">
          <mxGeometry x="460" y="310" width="220" height="150" as="geometry" />
        </mxCell>
        <mxCell id="Ae-3tbpD8CXmH7pGEP9--17" value="Goes to the resident section" style="text;strokeColor=none;fillColor=none;align=left;verticalAlign=middle;spacingLeft=4;spacingRight=4;overflow=hidden;points=[[0,0.5],[1,0.5]];portConstraint=eastwest;rotatable=0;fontSize=14;" vertex="1" parent="Ae-3tbpD8CXmH7pGEP9--16">
          <mxGeometry y="30" width="220" height="30" as="geometry" />
        </mxCell>
        <mxCell id="Ae-3tbpD8CXmH7pGEP9--18" value="FOR loop" style="text;strokeColor=none;fillColor=none;align=left;verticalAlign=middle;spacingLeft=4;spacingRight=4;overflow=hidden;points=[[0,0.5],[1,0.5]];portConstraint=eastwest;rotatable=0;fontSize=14;" vertex="1" parent="Ae-3tbpD8CXmH7pGEP9--16">
          <mxGeometry y="60" width="220" height="30" as="geometry" />
        </mxCell>
        <mxCell id="Ae-3tbpD8CXmH7pGEP9--19" value="opens the browser" style="text;strokeColor=none;fillColor=none;align=left;verticalAlign=middle;spacingLeft=4;spacingRight=4;overflow=hidden;points=[[0,0.5],[1,0.5]];portConstraint=eastwest;rotatable=0;fontSize=14;" vertex="1" parent="Ae-3tbpD8CXmH7pGEP9--16">
          <mxGeometry y="90" width="220" height="30" as="geometry" />
        </mxCell>
        <mxCell id="Ae-3tbpD8CXmH7pGEP9--20" value="goes to Voyager page" style="text;html=1;strokeColor=none;fillColor=none;align=center;verticalAlign=middle;whiteSpace=wrap;rounded=0;fontSize=14;" vertex="1" parent="Ae-3tbpD8CXmH7pGEP9--16">
          <mxGeometry y="120" width="220" height="30" as="geometry" />
        </mxCell>
      </root>
    </mxGraphModel>
  </diagram>
</mxfile>
